<svg xmlns="http://www.w3.org/2000/svg" xmlns:xlink="http://www.w3.org/1999/xlink" width="1200" zoomAndPan="magnify" viewBox="0 0 900 225" height="300" preserveAspectRatio="xMidYMid meet" version="1.0"><defs><g/><clipPath id="0557b9d049"><rect x="0" width="900" y="0" height="117"/></clipPath></defs><g transform="matrix(1, 0, 0, 1, 0, 54)"><g clip-path="url(#0557b9d049)"><g fill="#000000" fill-opacity="1"><g transform="translate(0.0248302, 90.679889)"><g><path d="M 16.390625 -49.25 L 16.390625 -13.40625 C 16.390625 -12.03125 17.109375 -11.3125 18.546875 -11.25 L 47.5 -11.25 C 48.550781 -11.3125 49.460938 -11.769531 50.234375 -12.625 C 51.003906 -13.476562 51.566406 -14.46875 51.921875 -15.59375 C 52.285156 -16.726562 52.46875 -17.875 52.46875 -19.03125 C 52.46875 -20.132812 52.285156 -21.25 51.921875 -22.375 C 51.566406 -23.507812 51.003906 -24.503906 50.234375 -25.359375 C 49.460938 -26.222656 48.550781 -26.65625 47.5 -26.65625 L 21.6875 -26.65625 L 21.6875 -37.734375 L 47.171875 -37.734375 C 51.035156 -37.679688 54.222656 -36.59375 56.734375 -34.46875 C 59.242188 -32.34375 61.035156 -29.941406 62.109375 -27.265625 C 63.191406 -24.585938 63.734375 -21.816406 63.734375 -18.953125 C 63.734375 -16.191406 63.179688 -13.472656 62.078125 -10.796875 C 60.972656 -8.117188 59.175781 -5.71875 56.6875 -3.59375 C 54.207031 -1.46875 50.539062 -0.328125 45.6875 -0.171875 L 10.921875 -0.171875 C 9.378906 -0.171875 8.054688 -0.679688 6.953125 -1.703125 C 5.847656 -2.722656 5.269531 -4.003906 5.21875 -5.546875 L 5.21875 -49.25 Z M 16.390625 -49.25 "/></g></g></g><g fill="#000000" fill-opacity="1"><g transform="translate(67.887293, 90.679889)"><g><path d="M 22.1875 -0.171875 C 17.320312 -0.328125 13.648438 -1.46875 11.171875 -3.59375 C 8.691406 -5.71875 6.898438 -8.117188 5.796875 -10.796875 C 4.691406 -13.472656 4.140625 -16.191406 4.140625 -18.953125 C 4.140625 -21.816406 4.675781 -24.585938 5.75 -27.265625 C 6.820312 -29.941406 8.613281 -32.34375 11.125 -34.46875 C 13.632812 -36.59375 16.820312 -37.679688 20.6875 -37.734375 L 56.4375 -37.734375 L 56.4375 -27.234375 L 21.1875 -27.234375 C 19.96875 -27.234375 18.90625 -26.816406 18 -25.984375 C 17.09375 -25.160156 16.429688 -24.085938 16.015625 -22.765625 C 15.597656 -21.441406 15.390625 -20.144531 15.390625 -18.875 C 15.390625 -17.488281 15.597656 -16.132812 16.015625 -14.8125 C 16.429688 -13.488281 17.09375 -12.425781 18 -11.625 C 18.90625 -10.820312 19.96875 -10.394531 21.1875 -10.34375 L 56.4375 -10.34375 L 56.4375 -0.171875 Z M 56.4375 -15.3125 L 21.109375 -15.3125 L 21.109375 -22.84375 L 56.4375 -22.84375 Z M 56.4375 -15.3125 "/></g></g></g><g fill="#000000" fill-opacity="1"><g transform="translate(128.384196, 90.679889)"><g><path d="M 16.390625 -49.25 L 16.390625 -13.40625 C 16.390625 -12.03125 17.109375 -11.3125 18.546875 -11.25 L 47.5 -11.25 C 48.550781 -11.3125 49.460938 -11.769531 50.234375 -12.625 C 51.003906 -13.476562 51.566406 -14.46875 51.921875 -15.59375 C 52.285156 -16.726562 52.46875 -17.875 52.46875 -19.03125 C 52.46875 -20.132812 52.285156 -21.25 51.921875 -22.375 C 51.566406 -23.507812 51.003906 -24.503906 50.234375 -25.359375 C 49.460938 -26.222656 48.550781 -26.65625 47.5 -26.65625 L 21.6875 -26.65625 L 21.6875 -37.734375 L 47.171875 -37.734375 C 51.035156 -37.679688 54.222656 -36.59375 56.734375 -34.46875 C 59.242188 -32.34375 61.035156 -29.941406 62.109375 -27.265625 C 63.191406 -24.585938 63.734375 -21.816406 63.734375 -18.953125 C 63.734375 -16.191406 63.179688 -13.472656 62.078125 -10.796875 C 60.972656 -8.117188 59.175781 -5.71875 56.6875 -3.59375 C 54.207031 -1.46875 50.539062 -0.328125 45.6875 -0.171875 L 10.921875 -0.171875 C 9.378906 -0.171875 8.054688 -0.679688 6.953125 -1.703125 C 5.847656 -2.722656 5.269531 -4.003906 5.21875 -5.546875 L 5.21875 -49.25 Z M 16.390625 -49.25 "/></g></g></g><g fill="#000000" fill-opacity="1"><g transform="translate(196.246659, 90.679889)"><g><path d="M 22.1875 -0.171875 C 17.320312 -0.328125 13.648438 -1.46875 11.171875 -3.59375 C 8.691406 -5.71875 6.898438 -8.117188 5.796875 -10.796875 C 4.691406 -13.472656 4.140625 -16.191406 4.140625 -18.953125 C 4.140625 -21.816406 4.675781 -24.585938 5.75 -27.265625 C 6.820312 -29.941406 8.613281 -32.34375 11.125 -34.46875 C 13.632812 -36.59375 16.820312 -37.679688 20.6875 -37.734375 L 56.4375 -37.734375 L 56.4375 -27.234375 L 21.1875 -27.234375 C 19.96875 -27.234375 18.90625 -26.816406 18 -25.984375 C 17.09375 -25.160156 16.429688 -24.085938 16.015625 -22.765625 C 15.597656 -21.441406 15.390625 -20.144531 15.390625 -18.875 C 15.390625 -17.488281 15.597656 -16.132812 16.015625 -14.8125 C 16.429688 -13.488281 17.09375 -12.425781 18 -11.625 C 18.90625 -10.820312 19.96875 -10.394531 21.1875 -10.34375 L 56.4375 -10.34375 L 56.4375 -0.171875 Z M 56.4375 -15.3125 L 21.109375 -15.3125 L 21.109375 -22.84375 L 56.4375 -22.84375 Z M 56.4375 -15.3125 "/></g></g></g><g fill="#000000" fill-opacity="1"><g transform="translate(256.743562, 90.679889)"><g><path d="M 16.390625 -37.828125 L 16.390625 -4.546875 C 16.390625 -0.140625 15.78125 4.023438 14.5625 7.953125 C 13.457031 11.421875 11.648438 14.351562 9.140625 16.75 C 6.628906 19.15625 3.445312 20.46875 -0.40625 20.6875 L -7.859375 20.6875 L -7.859375 9.59375 L -3.234375 9.59375 C -1.128906 9.488281 0.609375 8.691406 1.984375 7.203125 C 3.367188 5.710938 4.253906 3.972656 4.640625 1.984375 C 5.023438 -0.00390625 5.21875 -2.566406 5.21875 -5.703125 L 5.21875 -37.828125 Z M 3.96875 -49.328125 C 3.96875 -50.867188 4.628906 -52.191406 5.953125 -53.296875 C 7.285156 -54.398438 8.890625 -54.953125 10.765625 -54.953125 C 12.640625 -54.953125 14.238281 -54.398438 15.5625 -53.296875 C 16.882812 -52.191406 17.546875 -50.867188 17.546875 -49.328125 C 17.546875 -47.722656 16.882812 -46.367188 15.5625 -45.265625 C 14.238281 -44.160156 12.640625 -43.609375 10.765625 -43.609375 C 8.890625 -43.609375 7.285156 -44.160156 5.953125 -45.265625 C 4.628906 -46.367188 3.96875 -47.722656 3.96875 -49.328125 Z M 3.96875 -49.328125 "/></g></g></g><g fill="#000000" fill-opacity="1"><g transform="translate(278.260928, 90.679889)"><g><path d="M 16.390625 -37.828125 L 16.390625 0.078125 L 5.21875 0.078125 L 5.21875 -37.828125 Z M 3.96875 -49.328125 C 3.96875 -50.867188 4.628906 -52.191406 5.953125 -53.296875 C 7.285156 -54.398438 8.890625 -54.953125 10.765625 -54.953125 C 12.640625 -54.953125 14.238281 -54.398438 15.5625 -53.296875 C 16.882812 -52.191406 17.546875 -50.867188 17.546875 -49.328125 C 17.546875 -47.722656 16.882812 -46.367188 15.5625 -45.265625 C 14.238281 -44.160156 12.640625 -43.609375 10.765625 -43.609375 C 8.890625 -43.609375 7.285156 -44.160156 5.953125 -45.265625 C 4.628906 -46.367188 3.96875 -47.722656 3.96875 -49.328125 Z M 3.96875 -49.328125 "/></g></g></g><g fill="#000000" fill-opacity="1"><g transform="translate(299.778294, 90.679889)"><g><path d="M 6.296875 -20.109375 L 6.296875 -29.046875 L 33.765625 -29.046875 L 33.765625 -20.109375 Z M 6.296875 -20.109375 "/></g></g></g><g fill="#000000" fill-opacity="1"><g transform="translate(339.75094, 90.679889)"><g><path d="M 31.609375 -38.984375 C 34.484375 -38.984375 37.3125 -38.648438 40.09375 -37.984375 C 42.882812 -37.328125 45.546875 -36.347656 48.078125 -35.046875 C 50.617188 -33.753906 52.867188 -32.03125 54.828125 -29.875 C 56.785156 -27.726562 57.847656 -25.164062 58.015625 -22.1875 L 58.015625 0.078125 L 46.84375 0.078125 L 46.84375 -19.609375 C 46.726562 -21.328125 46.078125 -22.75 44.890625 -23.875 C 43.710938 -25.007812 42.390625 -25.90625 40.921875 -26.5625 C 39.460938 -27.226562 37.945312 -27.722656 36.375 -28.046875 C 34.800781 -28.378906 33.210938 -28.546875 31.609375 -28.546875 C 30.015625 -28.546875 28.429688 -28.378906 26.859375 -28.046875 C 25.285156 -27.722656 23.765625 -27.226562 22.296875 -26.5625 C 20.835938 -25.90625 19.515625 -25.007812 18.328125 -23.875 C 17.140625 -22.75 16.492188 -21.328125 16.390625 -19.609375 L 16.390625 0.078125 L 5.296875 0.078125 L 5.296875 -22.1875 C 5.460938 -25.164062 6.507812 -27.726562 8.4375 -29.875 C 10.375 -32.03125 12.609375 -33.753906 15.140625 -35.046875 C 17.679688 -36.347656 20.34375 -37.328125 23.125 -37.984375 C 25.914062 -38.648438 28.742188 -38.984375 31.609375 -38.984375 Z M 31.609375 -38.984375 "/></g></g></g><g fill="#000000" fill-opacity="1"><g transform="translate(402.647857, 90.679889)"><g><path d="M 51.484375 0.078125 L 51.484375 -24.5 C 51.484375 -25.875 50.765625 -26.59375 49.328125 -26.65625 L 20.359375 -26.65625 C 19.304688 -26.59375 18.394531 -26.132812 17.625 -25.28125 C 16.851562 -24.425781 16.285156 -23.429688 15.921875 -22.296875 C 15.566406 -21.171875 15.390625 -20.03125 15.390625 -18.875 C 15.390625 -17.769531 15.566406 -16.648438 15.921875 -15.515625 C 16.285156 -14.390625 16.851562 -13.394531 17.625 -12.53125 C 18.394531 -11.675781 19.304688 -11.25 20.359375 -11.25 L 46.1875 -11.25 L 46.1875 -0.171875 L 20.6875 -0.171875 C 16.820312 -0.222656 13.632812 -1.3125 11.125 -3.4375 C 8.613281 -5.5625 6.820312 -7.960938 5.75 -10.640625 C 4.675781 -13.316406 4.140625 -16.085938 4.140625 -18.953125 C 4.140625 -21.710938 4.691406 -24.429688 5.796875 -27.109375 C 6.898438 -29.785156 8.691406 -32.179688 11.171875 -34.296875 C 13.648438 -36.421875 17.320312 -37.566406 22.1875 -37.734375 L 56.9375 -37.734375 C 58.488281 -37.734375 59.8125 -37.222656 60.90625 -36.203125 C 62.007812 -35.179688 62.59375 -33.898438 62.65625 -32.359375 L 62.65625 0.078125 Z M 51.484375 0.078125 "/></g></g></g><g fill="#000000" fill-opacity="1"><g transform="translate(469.848224, 90.679889)"><g><path d="M 16.390625 12 L 5.21875 12 L 5.21875 -32.359375 C 5.269531 -33.898438 5.847656 -35.179688 6.953125 -36.203125 C 8.054688 -37.222656 9.378906 -37.734375 10.921875 -37.734375 L 45.6875 -37.734375 C 50.539062 -37.566406 54.207031 -36.421875 56.6875 -34.296875 C 59.175781 -32.179688 60.972656 -29.785156 62.078125 -27.109375 C 63.179688 -24.429688 63.734375 -21.710938 63.734375 -18.953125 C 63.734375 -16.085938 63.191406 -13.316406 62.109375 -10.640625 C 61.035156 -7.960938 59.242188 -5.5625 56.734375 -3.4375 C 54.222656 -1.3125 51.035156 -0.222656 47.171875 -0.171875 L 22.015625 -0.171875 L 22.015625 -11.25 L 47.5 -11.25 C 48.550781 -11.25 49.460938 -11.675781 50.234375 -12.53125 C 51.003906 -13.394531 51.566406 -14.390625 51.921875 -15.515625 C 52.285156 -16.648438 52.46875 -17.769531 52.46875 -18.875 C 52.46875 -20.03125 52.285156 -21.171875 51.921875 -22.296875 C 51.566406 -23.429688 51.003906 -24.425781 50.234375 -25.28125 C 49.460938 -26.132812 48.550781 -26.59375 47.5 -26.65625 L 18.546875 -26.65625 C 17.109375 -26.59375 16.390625 -25.875 16.390625 -24.5 Z M 16.390625 12 "/></g></g></g><g fill="#000000" fill-opacity="1"><g transform="translate(537.710686, 90.679889)"><g><path d="M 16.390625 12 L 5.21875 12 L 5.21875 -32.359375 C 5.269531 -33.898438 5.847656 -35.179688 6.953125 -36.203125 C 8.054688 -37.222656 9.378906 -37.734375 10.921875 -37.734375 L 45.6875 -37.734375 C 50.539062 -37.566406 54.207031 -36.421875 56.6875 -34.296875 C 59.175781 -32.179688 60.972656 -29.785156 62.078125 -27.109375 C 63.179688 -24.429688 63.734375 -21.710938 63.734375 -18.953125 C 63.734375 -16.085938 63.191406 -13.316406 62.109375 -10.640625 C 61.035156 -7.960938 59.242188 -5.5625 56.734375 -3.4375 C 54.222656 -1.3125 51.035156 -0.222656 47.171875 -0.171875 L 22.015625 -0.171875 L 22.015625 -11.25 L 47.5 -11.25 C 48.550781 -11.25 49.460938 -11.675781 50.234375 -12.53125 C 51.003906 -13.394531 51.566406 -14.390625 51.921875 -15.515625 C 52.285156 -16.648438 52.46875 -17.769531 52.46875 -18.875 C 52.46875 -20.03125 52.285156 -21.171875 51.921875 -22.296875 C 51.566406 -23.429688 51.003906 -24.425781 50.234375 -25.28125 C 49.460938 -26.132812 48.550781 -26.59375 47.5 -26.65625 L 18.546875 -26.65625 C 17.109375 -26.59375 16.390625 -25.875 16.390625 -24.5 Z M 16.390625 12 "/></g></g></g><g fill="#000000" fill-opacity="1"><g transform="translate(605.573149, 90.679889)"><g><path d="M 51.484375 0.078125 L 51.484375 -24.5 C 51.484375 -25.875 50.765625 -26.59375 49.328125 -26.65625 L 20.359375 -26.65625 C 19.304688 -26.59375 18.394531 -26.132812 17.625 -25.28125 C 16.851562 -24.425781 16.285156 -23.429688 15.921875 -22.296875 C 15.566406 -21.171875 15.390625 -20.03125 15.390625 -18.875 C 15.390625 -17.769531 15.566406 -16.648438 15.921875 -15.515625 C 16.285156 -14.390625 16.851562 -13.394531 17.625 -12.53125 C 18.394531 -11.675781 19.304688 -11.25 20.359375 -11.25 L 46.1875 -11.25 L 46.1875 -0.171875 L 20.6875 -0.171875 C 16.820312 -0.222656 13.632812 -1.3125 11.125 -3.4375 C 8.613281 -5.5625 6.820312 -7.960938 5.75 -10.640625 C 4.675781 -13.316406 4.140625 -16.085938 4.140625 -18.953125 C 4.140625 -21.710938 4.691406 -24.429688 5.796875 -27.109375 C 6.898438 -29.785156 8.691406 -32.179688 11.171875 -34.296875 C 13.648438 -36.421875 17.320312 -37.566406 22.1875 -37.734375 L 56.9375 -37.734375 C 58.488281 -37.734375 59.8125 -37.222656 60.90625 -36.203125 C 62.007812 -35.179688 62.59375 -33.898438 62.65625 -32.359375 L 62.65625 0.078125 Z M 51.484375 0.078125 "/></g></g></g><g fill="#000000" fill-opacity="1"><g transform="translate(672.773539, 90.679889)"><g><path d="M 7.53125 0 L 7.53125 -14.40625 L 21.109375 -14.40625 L 21.109375 0 Z M 7.53125 0 "/></g></g></g><g fill="#000000" fill-opacity="1"><g transform="translate(701.408237, 90.679889)"><g><path d="M 22.015625 -0.171875 C 17.160156 -0.328125 13.488281 -1.46875 11 -3.59375 C 8.519531 -5.71875 6.726562 -8.117188 5.625 -10.796875 C 4.519531 -13.472656 3.96875 -16.191406 3.96875 -18.953125 C 3.96875 -21.816406 4.503906 -24.585938 5.578125 -27.265625 C 6.660156 -29.941406 8.457031 -32.34375 10.96875 -34.46875 C 13.476562 -36.59375 16.664062 -37.679688 20.53125 -37.734375 L 56.609375 -37.734375 L 56.609375 -26.65625 L 20.1875 -26.65625 C 19.144531 -26.65625 18.234375 -26.222656 17.453125 -25.359375 C 16.679688 -24.503906 16.117188 -23.507812 15.765625 -22.375 C 15.410156 -21.25 15.234375 -20.132812 15.234375 -19.03125 C 15.234375 -17.875 15.410156 -16.726562 15.765625 -15.59375 C 16.117188 -14.46875 16.679688 -13.476562 17.453125 -12.625 C 18.234375 -11.769531 19.144531 -11.3125 20.1875 -11.25 L 56.609375 -11.25 L 56.609375 -0.171875 Z M 22.015625 -0.171875 "/></g></g></g><g fill="#000000" fill-opacity="1"><g transform="translate(762.649972, 90.679889)"><g><path d="M 22.34375 -0.171875 C 17.488281 -0.328125 13.816406 -1.46875 11.328125 -3.59375 C 8.847656 -5.71875 7.054688 -8.117188 5.953125 -10.796875 C 4.847656 -13.472656 4.296875 -16.191406 4.296875 -18.953125 C 4.296875 -21.816406 4.832031 -24.585938 5.90625 -27.265625 C 6.988281 -29.941406 8.785156 -32.34375 11.296875 -34.46875 C 13.804688 -36.59375 16.992188 -37.679688 20.859375 -37.734375 L 47.671875 -37.734375 C 51.535156 -37.679688 54.722656 -36.59375 57.234375 -34.46875 C 59.742188 -32.34375 61.535156 -29.941406 62.609375 -27.265625 C 63.679688 -24.585938 64.21875 -21.816406 64.21875 -18.953125 C 64.21875 -16.191406 63.664062 -13.472656 62.5625 -10.796875 C 61.46875 -8.117188 59.675781 -5.71875 57.1875 -3.59375 C 54.707031 -1.46875 51.039062 -0.328125 46.1875 -0.171875 Z M 20.53125 -26.65625 C 19.476562 -26.65625 18.566406 -26.222656 17.796875 -25.359375 C 17.023438 -24.503906 16.457031 -23.507812 16.09375 -22.375 C 15.738281 -21.25 15.5625 -20.132812 15.5625 -19.03125 C 15.5625 -17.875 15.738281 -16.726562 16.09375 -15.59375 C 16.457031 -14.46875 17.023438 -13.476562 17.796875 -12.625 C 18.566406 -11.769531 19.476562 -11.3125 20.53125 -11.25 L 48 -11.25 C 49.050781 -11.3125 49.960938 -11.769531 50.734375 -12.625 C 51.503906 -13.476562 52.066406 -14.46875 52.421875 -15.59375 C 52.785156 -16.726562 52.96875 -17.875 52.96875 -19.03125 C 52.96875 -20.132812 52.785156 -21.25 52.421875 -22.375 C 52.066406 -23.507812 51.503906 -24.503906 50.734375 -25.359375 C 49.960938 -26.222656 49.050781 -26.65625 48 -26.65625 Z M 20.53125 -26.65625 "/></g></g></g><g fill="#000000" fill-opacity="1"><g transform="translate(830.843472, 90.679889)"><g><path d="M 22.765625 -38.984375 C 24.691406 -38.984375 26.578125 -38.648438 28.421875 -37.984375 C 30.273438 -37.328125 32.054688 -36.363281 33.765625 -35.09375 C 34.046875 -34.8125 34.347656 -34.535156 34.671875 -34.265625 C 34.953125 -34.535156 35.257812 -34.8125 35.59375 -35.09375 C 37.300781 -36.363281 39.078125 -37.328125 40.921875 -37.984375 C 42.773438 -38.648438 44.640625 -38.984375 46.515625 -38.984375 C 48.441406 -38.984375 50.328125 -38.648438 52.171875 -37.984375 C 54.023438 -37.328125 55.789062 -36.347656 57.46875 -35.046875 C 59.15625 -33.753906 60.644531 -32.03125 61.9375 -29.875 C 63.238281 -27.726562 63.890625 -25.164062 63.890625 -22.1875 L 63.890625 0.078125 L 52.71875 0.078125 L 52.71875 -21.515625 C 52.71875 -22.835938 52.46875 -23.953125 51.96875 -24.859375 C 51.476562 -25.773438 50.925781 -26.492188 50.3125 -27.015625 C 49.707031 -27.546875 49.070312 -27.929688 48.40625 -28.171875 C 47.75 -28.421875 47.09375 -28.546875 46.4375 -28.546875 C 45.769531 -28.546875 45.117188 -28.421875 44.484375 -28.171875 C 43.847656 -27.929688 43.226562 -27.546875 42.625 -27.015625 C 42.019531 -26.492188 41.46875 -25.773438 40.96875 -24.859375 C 40.46875 -23.953125 40.191406 -22.835938 40.140625 -21.515625 L 40.140625 0.078125 L 28.96875 0.078125 L 28.96875 -21.515625 C 28.96875 -22.835938 28.71875 -23.953125 28.21875 -24.859375 C 27.726562 -25.773438 27.175781 -26.492188 26.5625 -27.015625 C 25.957031 -27.546875 25.320312 -27.929688 24.65625 -28.171875 C 24 -28.421875 23.335938 -28.546875 22.671875 -28.546875 C 22.015625 -28.546875 21.367188 -28.421875 20.734375 -28.171875 C 20.097656 -27.929688 19.472656 -27.546875 18.859375 -27.015625 C 18.253906 -26.492188 17.703125 -25.773438 17.203125 -24.859375 C 16.710938 -23.953125 16.441406 -22.835938 16.390625 -21.515625 L 16.390625 0.078125 L 5.296875 0.078125 L 5.296875 -22.1875 C 5.410156 -25.164062 6.097656 -27.726562 7.359375 -29.875 C 8.628906 -32.03125 10.117188 -33.753906 11.828125 -35.046875 C 13.546875 -36.347656 15.328125 -37.328125 17.171875 -37.984375 C 19.023438 -38.648438 20.890625 -38.984375 22.765625 -38.984375 Z M 22.765625 -38.984375 "/></g></g></g></g></g></svg>